# xmcd
#
# Track frame offsets:
#	150
#	19684
#	31726
#	49062
#	67116
#	83919
#	97849
#	109543
#	122680
#	142638
#	159603
#	179872
#	194955
#	216800
#	234587
#	252807
#	264742
#	280998
#	296449
#	311430
#
# Disc length: 4394 seconds
#
# Revision: 2
# Processed by: cddbd v1.5.2PL0 Copyright (c) Steve Scherf et al.
# Submitted via: audiograbber 1.83.01
#
DISCID=21112814
DTITLE=Garth Brooks - TT049
DYEAR=1900
DGENRE=Karaoke
TTITLE0=Garth Brooks - BEACHES OF CHEYENNE
TTITLE1=Garth Brooks - CALLIN' BATON ROUGE
TTITLE2=Garth Brooks - DANCE
TTITLE3=Garth Brooks - FRIENDS IN LOW PLACES
TTITLE4=Garth Brooks - IF TOMORROW NEVER COMES
TTITLE5=Garth Brooks - MUCH TOO YOUNG (TO FEEL THIS DAMNED
TTITLE6=Garth Brooks - NOT COUNTING YOU
TTITLE7=Garth Brooks - PAPA LOVED MAMA
TTITLE8=Garth Brooks - RIVER
TTITLE9=Garth Brooks - RODEO
TTITLE10=Garth Brooks - SHAMELESS
TTITLE11=Garth Brooks - SOMEWHERE OTHER THAN THE NIGHT
TTITLE12=Garth Brooks - THAT SUMMER
TTITLE13=Garth Brooks - THUNDER ROLLS
TTITLE14=Garth Brooks - TO MAKE YOU FEEL MY LOVE
TTITLE15=Garth Brooks - TWO OF A KIND (WORKING ON A FULL HOuse)
TTITLE16=Garth Brooks - TWO PINA COLADAS
TTITLE17=Garth Brooks - UNANSWERED PRAYERS
TTITLE18=Garth Brooks - WILD HORSES
TTITLE19=Garth Brooks - YOU MOVE ME
EXTD=
EXTT0=
EXTT1=
EXTT2=
EXTT3=
EXTT4=
EXTT5=
EXTT6=
EXTT7=
EXTT8=
EXTT9=
EXTT10=
EXTT11=
EXTT12=
EXTT13=
EXTT14=
EXTT15=
EXTT16=
EXTT17=
EXTT18=
EXTT19=
PLAYORDER=
